<svg width="26" height="26" viewBox="0 0 26 26" fill="none" xmlns="http://www.w3.org/2000/svg">
<path d="M16.6693 11.8907L12.4067 9.04799C12.2057 8.9139 11.972 8.83693 11.7307 8.82533C11.4893 8.81373 11.2494 8.86792 11.0365 8.98212C10.8235 9.09632 10.6456 9.26623 10.5218 9.4737C10.398 9.68116 10.3328 9.91838 10.3333 10.16V15.844C10.3333 16.0854 10.3988 16.3223 10.5228 16.5293C10.6469 16.7364 10.8248 16.9059 11.0376 17.0198C11.2505 17.1337 11.4902 17.1877 11.7314 17.176C11.9725 17.1642 12.2059 17.0873 12.4067 16.9533L16.6693 14.1107C16.8519 13.9889 17.0017 13.8239 17.1052 13.6304C17.2088 13.4369 17.263 13.2208 17.263 13.0013C17.263 12.7818 17.2088 12.5658 17.1052 12.3722C17.0017 12.1787 16.8519 12.0124 16.6693 11.8907Z" stroke="url(#paint0_linear_0_1)" stroke-width="2" stroke-linecap="round" stroke-linejoin="round"/>
<path d="M25 13C25 14.5759 24.6896 16.1363 24.0866 17.5922C23.4835 19.0481 22.5996 20.371 21.4853 21.4853C20.371 22.5996 19.0481 23.4835 17.5922 24.0866C16.1363 24.6896 14.5759 25 13 25C11.4241 25 9.86371 24.6896 8.4078 24.0866C6.95189 23.4835 5.62902 22.5996 4.51472 21.4853C3.40042 20.371 2.5165 19.0481 1.91345 17.5922C1.31039 16.1363 1 14.5759 1 13C1 9.8174 2.26428 6.76516 4.51472 4.51472C6.76516 2.26428 9.8174 1 13 1C16.1826 1 19.2348 2.26428 21.4853 4.51472C23.7357 6.76516 25 9.8174 25 13Z" stroke="url(#paint1_linear_0_1)" stroke-width="2" stroke-linecap="round" stroke-linejoin="round"/>
<defs>
<linearGradient id="paint0_linear_0_1" x1="10.8747" y1="8.82379" x2="16.5592" y2="8.82379" gradientUnits="userSpaceOnUse">
<stop stop-color="#3467AE"/>
<stop offset="1" stop-color="#0C4969"/>
</linearGradient>
<linearGradient id="paint1_linear_0_1" x1="2.87499" y1="1" x2="22.5625" y2="1" gradientUnits="userSpaceOnUse">
<stop stop-color="#3467AE"/>
<stop offset="1" stop-color="#0C4969"/>
</linearGradient>
</defs>
</svg>
